{"title":"A Place to Call Home - S04E03 - When You're Smiling","uid":15897116,"size":1198893428,"categoryP":"video","categoryS":"tv_shows","magnet":"?xt=urn:btih:54eed3f1921e04b339064c626355ed6e224a6dfc&amp;dn=A+Place+to+Call+Home+-+S04E03+-+When+You%27re+Smiling&amp;tr=udp%3A%2F%2Ftracker.leechers-paradise.org%3A6969&amp;tr=udp%3A%2F%2Fzer0day.ch%3A1337&amp;tr=udp%3A%2F%2Fopen.demonii.com%3A1337&amp;tr=udp%3A%2F%2Ftracker.coppersurfer.tk%3A6969&amp;tr=udp%3A%2F%2Fexodus.desync.com%3A6969","seeders":32,"leechers":9,"uploader":"Bullrout","files":1,"time":1474822166,"description":"A Place to Call Home - S04E03 - When You're Smiling\r\n\r\nWhen Sarah and Roy go to Sydney, she finds more than she bargained for. Can Carolyn admit the truth to Elizabeth? Henry's confession forces James to sort out his true feelings.\r\n\r\nComplete name                            : A Place To Call Home - S04E03 - When You're Smiling.mkv\r\nFormat                                   : Matroska\r\nFormat version                           : Version 4 / Version 2\r\nFile size                                : 1.12 GiB\r\nDuration                                 : 48 min 33 s\r\nOverall bit rate mode                    : Variable\r\nOverall bit rate                         : 3 292 kb/s\r\nEncoded date                             : UTC 2016-09-25 14:36:26\r\nWriting application                      : mkvmerge v9.4.2 ('So High') 64bit\r\nWriting library                          : libebml v1.3.4 + libmatroska v1.4.5\r\n\r\nVideo\r\nID                                       : 2\r\nFormat                                   : AVC\r\nFormat/Info                              : Advanced Video Codec\r\nFormat profile                           :   \r\nFormat settings, CABAC                   : Yes\r\nFormat settings, ReFrames                : 3 frames\r\nCodec ID                                 : V_MPEG4/ISO/AVC\r\nDuration                                 : 48 min 33 s\r\nBit rate mode                            : Variable\r\nBit rate                                 : 2 906 kb/s\r\nMaximum bit rate                         : 3 000 kb/s\r\nWidth                                    : 1 280 pixels\r\nHeight                                   : 720 pixels\r\nDisplay aspect ratio                     : 16:9\r\nFrame rate mode                          : Constant\r\nFrame rate                               : 25.000 FPS\r\nStandard                                 : PAL\r\nColor space                              : YUV\r\nChroma subsampling                       : 4:2:0\r\nBit depth                                : 8 bits\r\nScan type                                : Progressive\r\nBits/(Pixel*Frame)                       : 0.126\r\nStream size                              : 1 009 MiB (88%)\r\nWriting library                          : x264 core 112\r\nDefault                                  : Yes\r\nForced                                   : No\r\nColor range                              : Limited\r\nColor primaries                          : BT.709\r\nTransfer characteristics                 : BT.709\r\nMatrix coefficients                      : BT.709\r\n\r\nAudio\r\nID                                       : 1\r\nFormat                                   : AC-3\r\nFormat/Info                              : Audio Coding 3\r\nMode extension                           : CM (complete main)\r\nFormat settings, Endianness              : Big\r\nCodec ID                                 : A_AC3\r\nDuration                                 : 48 min 33 s\r\nBit rate mode                            : Constant\r\nBit rate                                 : 384 kb/s\r\nChannel(s)                               : 6 channels\r\nChannel positions                        : Front: L C R, Side: L R, LFE\r\nSampling rate                            : 48.0 kHz\r\nFrame rate                               : 31.250 FPS (1536 spf)\r\nCompression mode                         : Lossy\r\nStream size                              : 133 MiB (12%)\r\nDefault                                  : Yes\r\nForced                                   : No","torrent":{"xt":"urn:btih:54eed3f1921e04b339064c626355ed6e224a6dfc","amp;dn":"A+Place+to+Call+Home+-+S04E03+-+When+You%27re+Smiling","amp;tr":["udp%3A%2F%2Ftracker.leechers-paradise.org%3A6969","udp%3A%2F%2Fzer0day.ch%3A1337","udp%3A%2F%2Fopen.demonii.com%3A1337","udp%3A%2F%2Ftracker.coppersurfer.tk%3A6969","udp%3A%2F%2Fexodus.desync.com%3A6969"],"infoHash":"54eed3f1921e04b339064c626355ed6e224a6dfc","infoHashBuffer":{"type":"Buffer","data":[84,238,211,241,146,30,4,179,57,6,76,98,99,85,237,110,34,74,109,252]},"announce":[],"urlList":[]}}